<svg width="25" height="25" viewBox="0 0 25 25" fill="none" xmlns="http://www.w3.org/2000/svg">
<path fill-rule="evenodd" clip-rule="evenodd" d="M6.41699 13.7367C10.486 13.7367 10.667 15.1167 10.667 17.9867C10.667 19.4247 10.667 20.4477 10.063 21.1967C9.36799 22.0597 8.10299 22.2367 6.41699 22.2367C4.73099 22.2367 3.46599 22.0597 2.77099 21.1967C2.16699 20.4477 2.16699 19.4257 2.16699 18.0117L2.91699 17.9867H2.16699C2.16699 15.1167 2.34799 13.7367 6.41699 13.7367ZM17.417 13.7367C21.486 13.7367 21.667 15.1167 21.667 17.9867C21.667 19.4247 21.667 20.4477 21.063 21.1967C20.368 22.0597 19.103 22.2367 17.417 22.2367C15.731 22.2367 14.466 22.0597 13.771 21.1967C13.167 20.4477 13.167 19.4257 13.167 18.0117L13.917 17.9867H13.167C13.167 15.1167 13.348 13.7367 17.417 13.7367ZM6.62315 15.2371L6.41699 15.2367C3.80802 15.2367 3.67422 15.4239 3.66736 17.6137L3.66778 18.4669C3.67252 19.3378 3.70571 19.967 3.93799 20.2567C4.20299 20.5847 4.98999 20.7367 6.41699 20.7367C7.84399 20.7367 8.63099 20.5837 8.89599 20.2557C9.16699 19.9187 9.16699 19.1187 9.16699 18.0107C9.16699 15.5105 9.16699 15.2489 6.62315 15.2371ZM17.6232 15.2371L17.417 15.2367C14.808 15.2367 14.6742 15.4239 14.6674 17.6137L14.6678 18.4669C14.6725 19.3378 14.7057 19.967 14.938 20.2567C15.203 20.5847 15.99 20.7367 17.417 20.7367C18.844 20.7367 19.631 20.5837 19.896 20.2557C20.167 19.9187 20.167 19.1187 20.167 18.0107C20.167 15.5105 20.167 15.2489 17.6232 15.2371ZM6.41699 2.73669C10.486 2.73669 10.667 4.11669 10.667 6.98669C10.667 8.42469 10.667 9.44769 10.063 10.1967C9.36799 11.0597 8.10299 11.2367 6.41699 11.2367C4.73099 11.2367 3.46599 11.0597 2.77099 10.1967C2.16699 9.44769 2.16699 8.42569 2.16699 7.01169L2.91699 6.98669H2.16699C2.16699 4.11669 2.34799 2.73669 6.41699 2.73669ZM17.417 2.73669C21.486 2.73669 21.667 4.11669 21.667 6.98669C21.667 8.42469 21.667 9.44769 21.063 10.1967C20.368 11.0597 19.103 11.2367 17.417 11.2367C15.731 11.2367 14.466 11.0597 13.771 10.1967C13.167 9.44769 13.167 8.42569 13.167 7.01169L13.917 6.98669H13.167C13.167 4.11669 13.348 2.73669 17.417 2.73669ZM6.62315 4.23714L6.41699 4.23669C3.80802 4.23669 3.67422 4.42391 3.66736 6.61374L3.66778 7.46688C3.67252 8.33784 3.70571 8.96698 3.93799 9.25669C4.20299 9.58469 4.98999 9.73669 6.41699 9.73669C7.84399 9.73669 8.63099 9.58369 8.89599 9.25569C9.16699 8.91869 9.16699 8.11869 9.16699 7.01069C9.16699 4.51049 9.16699 4.24891 6.62315 4.23714ZM17.6232 4.23714L17.417 4.23669C14.808 4.23669 14.6742 4.42391 14.6674 6.61374L14.6678 7.46688C14.6725 8.33784 14.7057 8.96698 14.938 9.25669C15.203 9.58469 15.99 9.73669 17.417 9.73669C18.844 9.73669 19.631 9.58369 19.896 9.25569C20.167 8.91869 20.167 8.11869 20.167 7.01069C20.167 4.51049 20.167 4.24891 17.6232 4.23714Z" fill="currentColor"/>
</svg>
