<svg width="25" height="25" viewBox="0 0 25 25" fill="none" xmlns="http://www.w3.org/2000/svg">
<path fill-rule="evenodd" clip-rule="evenodd" d="M11.3096 20.6612C11.8276 21.2382 12.4926 21.5552 13.1826 21.5552H13.1836C13.8766 21.5552 14.5446 21.2382 15.0636 20.6602C15.3416 20.3532 15.8156 20.3282 16.1226 20.6052C16.4306 20.8822 16.4556 21.3572 16.1786 21.6642C15.3706 22.5612 14.3076 23.0552 13.1836 23.0552H13.1816C12.0606 23.0542 10.9996 22.5602 10.1946 21.6632C9.91758 21.3562 9.94258 20.8812 10.2506 20.6052C10.5586 20.3272 11.0326 20.3522 11.3096 20.6612ZM13.2324 1.55524C17.6774 1.55524 20.6634 5.01724 20.6634 8.25024C20.6634 9.91324 21.0864 10.6182 21.5354 11.3662C21.9794 12.1042 22.4824 12.9422 22.4824 14.5262C22.1334 18.5732 17.9084 18.9032 13.2324 18.9032C8.55638 18.9032 4.33038 18.5732 3.98536 14.5902C3.98238 12.9422 4.48538 12.1042 4.92938 11.3662L5.08612 11.1024C5.47205 10.4391 5.80138 9.71759 5.80138 8.25024C5.80138 5.01724 8.78738 1.55524 13.2324 1.55524ZM13.2324 3.05524C9.73738 3.05524 7.30138 5.79324 7.30138 8.25024C7.30138 10.3292 6.72438 11.2902 6.21438 12.1382C5.80538 12.8192 5.48238 13.3572 5.48238 14.5262C5.64938 16.4122 6.89438 17.4032 13.2324 17.4032C19.5354 17.4032 20.8194 16.3682 20.9854 14.4612C20.9824 13.3572 20.6594 12.8192 20.2504 12.1382C19.7404 11.2902 19.1634 10.3292 19.1634 8.25024C19.1634 5.79324 16.7274 3.05524 13.2324 3.05524Z" fill="currentColor"/>
</svg>
